<svg width="1080" height="1080" viewBox="0 0 1080 1080" xmlns="http://www.w3.org/2000/svg">
 <title>ZAV Fiambres &amp; Embutidos</title>
 <desc>Vectorización del logotipo original con fondo transparente.</desc>
 <g fill-rule="evenodd">
  <path d="m737 297-3-2h-8l-1 1h-4l-7 2-1-1 6-9v-4l-3-2h-7l-1 1h-4l-14 4-13 7-4 3-5 6-9-3-22-1-5-2h-8l-7 2h-3l-1-1-53 1-1-1-19-1-1-1h-7l-7-2-21-2-1-1h-7l-1-1h-6l-1-1h-8l-1-1h-11l-1-1h-29l-1 1h-8l-1 1h-5l-1 1-7 1-7 3-3 4h-7l-20 9-10 7-6 6-7 12-6-2h-6l-7 4-8 9v4l8 8 7 2 6-5v-6l-3-4 1-1h4l1 1-1 23 1 1 1 11 5 15 13 28 6 17v6l-3 5-8 7v6l3 5 1 8 1 1-2 7v6l3 2h4l5 8 3 2h8l7-3 2-2-1-4-6-6-3-1-3-3v-10l2-3v-2l17-15 1 1v6l12 11 6 12 2 1h5l2 6 5 3h9l6-3v-5l-1-2-14-12-5-9v-2l3-3 11-7 3-4 2-5v-5l-1-1v-3l1-1 8 3h4l6 2h6l1 1h8l1 1h23l5-2h3l1 1h20l1-1 30-2 7-3 1 1v3l-1 1-1 10-1 1v8l1 1v6l4 11v11l8 5 1 5 2 2 5 2 10-1 5-4v-4l-12-11v-4l-1-1v-14l1-1v-3l5-11 4-5 1 1 1 12 3 6 1 5 3 5 2 12 4 3h4l3 6 4 3 4 1 1-1h6l5-3v-6l-6-7-5-2-2-2-1-7-1-1v-15l3-9 3-5 10-11 3 2h12l1-1h11l1-1 1 1 4-3 7 2 1-1 8-1 15-7 26-19 12-5 5-5v-3l1-1v-15l-1-1v-9l-1-3-4-3h-22l-9-4-5-6 2-10 9-18 6-7 2-4zm-303 104 1-1 3 1-2 2zm-2-1 1-1 2 1-1 1zm166 0 2-2 2 1 1 2-3 1zm-174-2 1-1 2 1-1 1zm191-45 2-2 3 1-2 3z"/>
 </g>
 <g fill="#E75629" fill-rule="evenodd">
  <path d="m606 402-1 1v4l6 18 3 24 3 6 1 5 3 5 1 10 2 3h5l2 1 4 8 3 1 2-1h6l2-1v-4l-5-6-5-2-3-3-1-3v-4l-1-1v-17l3-9 2-2 1-3 9-9-6-7-14-9-10-4zm-13 0-4 2-3 7v7l-1 1v3l-1 1v3l-3 9-1 10-1 1v6l1 1v6l4 11v11l1 1h3l3 2 3 8 8 1 1-1h4l2-2v-2l-5-5-5-3-2-3v-4l-1-1v-16l1-1 1-6 4-8 5-6v-8l-7-22-3-2zm-77 29v-18l-1-1-1-7-1-2-2-1h-10l-1 1h-60l1 4 11 16 4 4 6 2 9 1 1 1 15 1 1 1h23zm2-28 1 8 1 1v5l1 1-1 2v12h20l1-1 23-1 1-1 10-1 5-5 1-3v-6l2-5v-2l-2-3h-29l-1-1-20-1-1-1-11 1zm-91-2-2 1-1 2v5l-1 1v4l-1 1v4l-2 6v5l-2 4v3l-1 1v3l-3 9-3 3v4l12 11 5 11h6l3 3 1 5 2 1h9l3-1-1-5-7-5-7-7-5-9v-4l4-4 11-7 4-8-1-9-6-13-3-4h-1l-8-9zm185-46-4 2v1l-3 2-4 6-2 6v11l1 1 1 11 2 2 3 1h8l8 3h4l-2-17-1-1v-4l-2-5-1-8-3-8-2-2zm10-1-1 2v4l6 18 3 22 11 12 6 4h3l1 1 2-6v-5l1-1v-13l-1-1v-4l-3-9-5-9-9-9-8-5zm-217-53h-7l-18 8-10 7-2 3-3 2-6 11-2 2-3 1-5-2h-6l-5 3-7 8v2l7 7 5 1 3-3v-4l-5-6 3-3h8l4 5-1 1v12l-1 1v7l1 1 1 11 5 15 4 7 2 7 7 14v2l2 3 4 12v8l-3 5-8 7v4l3 5 1 8 1 1-2 13h3l1-1 2 1 6 10h8l6-3-6-7-3-1-4-4v-12l2-3v-2l20-18 5-9 1-6 3-8v-3l1-1v-6l1-1 2-13 5-15 2-2v-2l6-13 1-8 1-1v-6l1-1v-7l-1-1-1-10-7-16-4-4-2-4-6-5zm-69 45 2-2h3l3 4v3l-3 2-3-1-2-2zm282-45-1 25 1 1v11l1 1 1 10 13 4 7 5 8 8 4 6 5 12 1 11 1 1v6l-1 1-1 10-3 7 1 1h12l1-1h11l1-1 1 1 1-1v-3l-5-15v-3l-2-3v-3l-2-4-2-11-2-4v-3l-2-5-1-10-1-1v-6l-1-1v-7l-1-1v-20l1-1 1-13-1-1-11-1-1-1h-15l-5-2zm62 118 1-1 1 1-1 1zm-271-122 1 2 4 1 6 4 12 13v2l5 8 1 6 1 1v4l1 1v19l-1 1-1 9-6 13-1 5-3 5v4l2 1h4l1 1 17 1 1 1h31l1-1h18l1-1h31l1 1h12l1 1h10l1 1h30l6-2 1-3-3-9v-14l1-1v-3l4-8 5-5 9-4 2-2-1-12-1-1v-8l-1-1v-8l1-1v-17h-15l-1 1h-37l-1-1-19-1-1-1h-7l-1-1-19-2-1-1h-7l-1-1h-7l-1-1-15-1-1-1h-11l-1-1h-29l-1 1h-8l-1 1h-5l-1 1-7 1zm307-12h-7l-1 1h-4l-1 1-7 1-14 6-7 5-4 5-2 6v4l-1 1v28l1 1v6l1 1v6l1 1 1 9 1 1v3l2 5v4l4 12v3l1 1 3 14 4 7 5 2 1-1 8-1 13-6 26-19 12-5 4-4v-3l1-1-1-23-2-4h-22l-11-5-6-7v-5l2-4v-3l9-18 6-7 2-5h-8l-1 1h-4l-1 1-10 2-1-1v-4l7-10z"/>
 </g>
 <g fill="#EDEEEE" fill-rule="evenodd">
  <path d="m816 767 1 1h3l2 2v29l-1 1h-4l-1 1 1 2h24l1-1h3l2-1 7-6 1-4 1-1v-4l1-1v-2l-1-1v-4l-4-7h-1l-3-3-4-2h-3l-1-1h-22zm15 0 8 1 1 1 4 1 5 5 2 4v3l1 1-1 6-2 4-5 5-4 1-1 1h-4l-1 1h-4l-3-2v-3l-1-1v-19l1-1v-5zm-36-2-1 2 4 1 2 2v29l-1 1h-4l-1 2 1 1h15v-2l-5-3v-28l3-2h2l1-2-1-1zm-97 0v2l1 1h2l3 4v22l1 1 1 4 6 4h5l1 1h4l1-1h5l2-1 4-4 2-4v-5l1-1v-2l-1-1v-15l2-2h3l1-1v-2h-14l-2 1v1l4 1 2 2v19l-1 1v4l-1 2-2 2-4 2h-7l-1-1h-2l-5-5v-3l-1-1v-13l-1-2 1-1v-4l2-2h3v-3zm-42 0-1 2 1 1h3l2 3v27l-2 2h-3l-1 3h28l4-2 4-5v-7l-1-2-5-4 4-8-2-6-5-4zm9 24 3-4 2-1h5l1 1h4l6 4v2l1 1-1 1v2l-3 3-4 1-1 1-8 1-1-1h-2l-2-3zm0-17 3-4h9l1 1h2l4 4v4l-4 4h-2l-1 1h-10l-2-2zm-108-7v2l3 1 3 3-1 1v27l-1 1h-4v3h8l1 1h7l2-1 1 1 1-1h12l2-1 1-4-2-4h-2l-1 1v3l-2 2h-15l-4-5v-4l3-4 2-1h12l1-2-2-2h-14l-1-1v-4l-1-1v-3l1-2 2-2 14-1 1 1h2l1 1v4h2l2-1v-8zm-164 0v2l1 1h3l1 1v3l1 1-1 1v25l-1 1h-3l-1 2 4 2 2-1 1 1h18l1-1h7l2-3v-4l-2-2h-2l-1 1v4l-1 1h-17l-1-1v-12l3-2 1 1h7l1-1 3 1 1-2-2-2h-5l-1 1h-4l-2-1-2-2v-3l-1-2 1-1v-4l2-2h12l1 1 1-1 3 2v4h3l1-1v-8zm-45 1 1 2h3l2 2v27l-3 3-3 1 1 2h16v-2l-1-1h-2l-4-3v-4l1-1v-2l3-3h4l2 1 5 5 3 7 2 2 4 2 2-1h3v-1l-8-7-4-7 7-7 1-2v-6l-2-4-2-2-4-2h-26zm11 4 2-2h9l1 1 4 1 3 4v5l-1 2-2 2h-2l-1 1h-5l-1 1-2-1-1 1-2-1-3-4v-8zm-53-5v2l1 1h3l1 1v29l-5 3v2h27l4-2 3-3 2-4-1-6-6-5 2-2 2-4v-4l-1-1-1-4-4-3zm10 22 2-2h2l1-1 12 2 2 1 2 3v5l-5 4h-3l-1 1h-10l-2-2v-2l-1-1zm0-17 4-3 8 1 4 2 2 2v2l1 1-1 1v2l-2 2-4 1-1 1h-9l-2-2v-2l-1-1v-4l1-1zm-143-5v2l1 1h2l3 2-1 2v7l1 1v17l-3 3h-2l-1 2 1 1h15l1-1-1-1h-2l-4-4v-27l2-2h3v-3zm-40 0v2l1 1h3l2 2v26l-1 2-2 2h-2l-1 2 1 1h16l1-1-1-2h-5l-2-2v-8l4-4h3l1-1 2 1h4l2-1v-2l-1-1h-13l-3-4 1-5 1-2 3-2h4l1-1h8l2 2v3l1 1h2l1-1v-7l-1-1zm787 1-2 2h-1l-2 3v2l-1 1v3l1 2 2 2 6 3 15 4 4 4v3l-4 4h-2l-1 1h-5l-1-1h-3l-4-2-3-3-1-4h-4l-1 1v5l-1 1 1 6h3l2-4 8 4h14l4-2 3-3v-2l1-1v-4l-1-2-3-3-6-3h-4l-1-1-7-1-4-2-2-2v-4l4-4h2l1-1h6l1 1h2l4 4 2 4h3l1-2v-7l-1-1v-2h-2l-1 1h-7l-4-2h-5l-1 1h-3zm-48 1-6 6-1 4-1 1v4l-1 1v2l1 1v4l1 1 1 4 5 5 6 3h6l2 1 1-1h6l1-1 4-1 6-6 3-7v-8l-4-9-5-4-4-2h-3l-1-1h-8l-1 1h-3l-1 1zm2 4 6-3h10l4 2 4 4 3 7v6l-1 1v3l-6 7-4 1-1 1h-8l-1-1-4-1-6-6-1-6-1-1v-3l1-1v-3zm-123-7-2 2v2l-1 1v2l2 4h2l1-1v-3l2-3h10l1 1v29l-3 2h-2v2l1 1h4l1 1h2l1-1h5l1-2-1-1h-2l-3-3v-25l1-2 3-2h7l2 2v4l1 1h2l2-3v-5l-1-2h-33l-1-1zm-153 1v3h3l2 2v29l-1 1h-4v3l2 1h3l1-1h9v-2l-1-1h-3l-1-1v-21l1-1 5 6 1 4 5 10 2 2h3l1-1 8-18 3-3 1 1v21l-1 1h-3l-1 2 1 1h14v-3h-2l-3-6v-28l2-2 4-1v-1l-2-2h-5l-4 2-5 5-1 4-3 5v2l-5 9h-1l-2-2-3-6v-2l-3-5v-2l-3-5-3-3-4-1-1-1h-4zm-94 1-3 4v5l3 6-2 2-4 2-3 4v8l1 2 2 2 4 2h13l1-1h4l1-1 1 1h3l1 1h4l1-1-2-2h-3l-2-2v-6l1-2 2-2 3-1 1-2-7-1-2 3v3l-1 1-4-1-4-5v-3l4-2 4-5v-5l-1-2-2-2-4-1-1-1h-5zm-4 23 3-3 2-1h3l7 7v1l2 2v3l-6 3-8-2-4-5zm9-22h3l5 4v4l-4 5h-4l-4-4v-5zm-70 0-2 2-2 4v3l2 4h1l5 4 16 4 4 3v4l-4 4-8 1-1-1h-3l-2-1-6-6v-1l-3-2-2 1v13h4v-2l2-2 8 4h13l1-1h2l4-4v-2l1-1v-4l-1-2-3-3-4-2-16-4-4-4v-3l4-4h2l1-1h5l1 1 4 1 3 3 2 4h3l1-2v-9l-2-2-4 3h-2l-6-3h-7zm-191-1v1l5 2 2 4v18l-1 1v6l-2 2h-3v3h3l1 1h5l1-1h4l1-1v-1l-3-1-2-2v-21l1-1 12 23h3l2-2 10-20 1 1v5l1 1v14l-2 2h-3v3h14l1-1-1-2h-2l-3-3v-27l2-2h3l1-1v-2h-10l-3 2-4 7v2l-3 5v2l-3 6-2 2-2-2-10-21-2-2-2-1h-4l-1-1h-2zm-37-2-2 2v1l3 2v3l-2 3v2l-3 5v2l-4 7v2l-4 7h-4v3h14l1-2-4-1-1-1 1-4 3-4 2-1h4l1-1h2l1 1h6l3 2 2 7-4 2v2h14l1-2-1-1h-3l-2-2-2-4v-2l-4-7v-2l-3-5v-2l-3-5v-2l-5-4h-2l-1-1zm7 6 4 8 2 7-1 1h-8l-1 1-1-1-1 1-1-1v-2l3-5 2-7zm386-201-2 2-1 4 1 1h9l6 4 5 9v2l3 5v2l3 5v2l4 7v2l1 1v7l-6 5 4 1 5 3 8 8v1l4 5 8 16v2l4 7v2l4 7v2l3 6 2 2 2 5 3 3 3-1 7-13 1-5 2-3v-2l4-8 1-5 2-3 2-7 6-12 7-8 6-3h-1l-4-5v-3l1-1 2-8 2-3 3-11 7-14 7-6h11l1-2-2-4-5-3h-5l-1 1h-11l-1-1h-17l-1 1h-2l-3 3-1 2v2l1 1 10-1 4 3 1 2v3l-3 6v2l-3 6v2l-2 3-1 5-3 5v2l-3 6v2l-2 3v2l-2 3-1 5-2 3v2l-4 8v2l-2 2-3-4v-2l-2-3v-2l-4-8-1-5-3-5v-2l-2-3v-2l-2-3v-2l-2-3v-2l-2-3v-2l-4-8-1-5-4-8 3-4h12v-3l-6-5h-3l-1-1h-18l-1 1h-14l-1 1h-3l-1-1h-3l-1-1h-8zm32 22h1l2 2v2l4 7v2l5 9v2l3 5v2l4 7v2l8 16v2l3 5v2l4 7v2l2 3-1 2-1-1h-2l-5-5-6-12-1-5-6-12-3-3v-1l-7-4 2-3 1-4-1-1-1-6-3-4-2-4-1-5-1-1v-6zm-281-20v4l-1 1v12l1 1v5l1 1v4l1 1v8l2 4 2 2 4 1 1 1h3l1-1v-7l-1-1v-3l1-1v-4l1-1v-2l2-2 1-3 11-10 4-1 3-2h3l1-1h3l1-1h10l1 1h3l2 1 2 2v2l-5 6-7 14-2 2-1 3-7 9v1l-2 1-2 3h-1l-5 4-6 2 4 2 3 3v5l-4 8-5 7-2 5-6 8-2 5-2 2-2 4-6 6-2 1h-9l-1 1 1 4 3 3h3l1 1h6l1-1 40-1 1 1 21 1 1-1 10-1 1-1h2l7-3h5l2 2v2l2 4h6l7-6 8 4h5l4-2h6l1 1h10l1 1h11l4-3 1-2v-4h-3l-1 1h-7l-1-1h-2l-3-3v-6l1-1 1-6 2-4 2-2 2-1h11l1-1 29 1 1 1 4 1 3 4v2l4 8v6l-1 1h-11v4l5 4h5l1 1h16l1-1h14l2-1 1 1h7l1 1h4l1-1h2l3-3v-2l1-1-1-2h-10l-4-3-4-8-2-7-4-7-2-7-3-5-2-7-2-3v-3l1-2 6-4-8-4-5-5-2-4-1-5-2-3-1-5-2-3v-2l-3-7v-3l-1-1v-5l1-2 3-2h7l3-2-2-4-3-2h-2l-1-1h-3l-1 1h-24l-1-1h-2l-1 1h-3l-1 1h-8l-4-2h-7l-4 2-3 3-1 2 1 4 10-1 3 2v8l-1 1v3l-3 6-3 11-4 8-5 6h-1l-3 3-3 1 1 3 4 5v6l-1 1-4 14-2 3v2l-4 8v2l-4 8-7 6h-7l-1-1h-2l-4-4v-2l3-5v-4l-4-6v-12l-1-1v-2l-3-3h-2l-1-1h-5l-1 1v5l1 1v7l-1 1v3l-4 8-7 7-3 1-4 3-6 1-1 1h-17l-1-1-4-1-3-3v-2l6-8 10-20 2-2 1-3 3-3v-1l9-8h2l6-3-2-2h-1l-2-3v-4l1-1v-2l11-22 2-2 2-5 2-2 2-4 5-4h10l1-2-3-5-2-1h-9l-1 1-1-1h-10l-1-1h-6l-1 1h-3l-3 2h-7l-1-1-8-1-1-1h-17l-1 1h-4l-4 2h-3l-4 2-8 1-2-2v-3l-2-3h-6l-4 2zm186 20h1l5 5 3 6 2 8 2 3v2l3 6 4 4 4 2-2 2v2l-1 1v4l1 1v2l1 1v2l1 1v2l1 1v2l1 1v2l1 1v2l3 7v7l-2 2-2-1v-2l-5-9-2-8-2-3v-2l-3-6-3-11-2-3-3-11-2-3-1-6-1-1v-2l-2-3v-3l-1-1v-3zm-115-1 1 2-3 6-2 2-2 5-2 2-5 11-2 2-3 7-2 2-4 9-2 2-3 7-2 2-8 16-4 5-2-2v-6l15-29-1-3h-1l-1-2 3-2 4-1 3-3v-1l3-3 9-18 6-7zm104-1 2 3 4 14 2 3v2l2 4v3l2 3v2l1 1v2l1 1v2l1 1v2l1 1v2l1 1v2l1 1v2l3 7-1 2h-40l-1-1v-3l2-3v-3l2-3v-2l1-1 4-14 2-3v-2l1-1 4-14 2-3 1-5z"/>
 </g>
</svg>
